<mxfile host="app.diagrams.net" modified="2023-10-11T00:09:26.548Z" agent="Mozilla/5.0 (Macintosh; Intel Mac OS X 10_15_7) AppleWebKit/537.36 (KHTML, like Gecko) Chrome/104.0.0.0 Safari/537.36" etag="8ErKMCfmIz-__RIf7XL_" version="22.0.4" type="google">
  <diagram name="Page-1" id="4dWl3C3BqsDxm5pRTNil">
    <mxGraphModel grid="1" page="1" gridSize="10" guides="1" tooltips="1" connect="1" arrows="1" fold="1" pageScale="1" pageWidth="850" pageHeight="1100" math="0" shadow="0">
      <root>
        <mxCell id="0" />
        <mxCell id="1" parent="0" />
        <mxCell id="tPHH5LvpKrj1Zh-4ouin-3" value="&lt;br&gt;&lt;br&gt;&lt;br&gt;&lt;br&gt;&lt;br&gt;&lt;br&gt;&lt;br&gt;&lt;br&gt;&lt;br&gt;&lt;br&gt;&lt;br&gt;&lt;br&gt;&lt;br&gt;&lt;br&gt;&lt;br&gt;&lt;br&gt;&lt;br&gt;&lt;br&gt;&lt;br&gt;&lt;br&gt;&lt;br&gt;&lt;br&gt;&lt;br&gt;&lt;br&gt;&lt;br&gt;&lt;br&gt;&lt;br&gt;&lt;br&gt;&lt;br&gt;&lt;br&gt;&lt;div style=&quot;text-align: left;&quot;&gt;&lt;span style=&quot;background-color: initial;&quot;&gt;&amp;nbsp; &amp;nbsp; &amp;nbsp; &amp;nbsp; &amp;nbsp; &amp;nbsp; &amp;nbsp; &amp;nbsp; &amp;nbsp; &amp;nbsp; &amp;nbsp; &amp;nbsp; &amp;nbsp; &amp;nbsp; &amp;nbsp; &amp;nbsp; &amp;nbsp; &amp;nbsp; &amp;nbsp; &amp;nbsp; &amp;nbsp; &amp;nbsp; &amp;nbsp; &amp;nbsp; &amp;nbsp; &amp;nbsp; &amp;nbsp; &amp;nbsp; &amp;nbsp; &amp;nbsp; &amp;nbsp; &amp;nbsp; &amp;nbsp; &amp;nbsp; &amp;nbsp; &amp;nbsp; &amp;nbsp; &amp;nbsp; &amp;nbsp; &amp;nbsp; &amp;nbsp; &amp;nbsp; &amp;nbsp; &amp;nbsp; &amp;nbsp; &amp;nbsp;Coupon Clipper Software&lt;/span&gt;&lt;br&gt;&lt;/div&gt;" style="whiteSpace=wrap;html=1;aspect=fixed;" vertex="1" parent="1">
          <mxGeometry x="263" y="318" width="465" height="465" as="geometry" />
        </mxCell>
        <mxCell id="djFXQgbhYTGaP2w8ebFR-4" style="rounded=0;orthogonalLoop=1;jettySize=auto;html=1;exitX=0;exitY=0.5;exitDx=0;exitDy=0;entryX=1;entryY=0.5;entryDx=0;entryDy=0;" edge="1" parent="1" source="tPHH5LvpKrj1Zh-4ouin-7" target="iZROIlO5ZiA8TIDN6EyB-11">
          <mxGeometry relative="1" as="geometry" />
        </mxCell>
        <mxCell id="tPHH5LvpKrj1Zh-4ouin-7" value="Virtual Assistant" style="ellipse;whiteSpace=wrap;html=1;" vertex="1" parent="1">
          <mxGeometry x="315" y="680" width="110" height="30" as="geometry" />
        </mxCell>
        <mxCell id="tPHH5LvpKrj1Zh-4ouin-12" value="User Verification" style="ellipse;whiteSpace=wrap;html=1;" vertex="1" parent="1">
          <mxGeometry x="490" y="460" width="110" height="30" as="geometry" />
        </mxCell>
        <mxCell id="tPHH5LvpKrj1Zh-4ouin-13" value="ID Verification" style="ellipse;whiteSpace=wrap;html=1;" vertex="1" parent="1">
          <mxGeometry x="590" y="358" width="110" height="30" as="geometry" />
        </mxCell>
        <mxCell id="tPHH5LvpKrj1Zh-4ouin-14" value="List Sharing" style="ellipse;whiteSpace=wrap;html=1;" vertex="1" parent="1">
          <mxGeometry x="410" y="568" width="110" height="30" as="geometry" />
        </mxCell>
        <mxCell id="iZROIlO5ZiA8TIDN6EyB-1" value="" style="ellipse;whiteSpace=wrap;html=1;aspect=fixed;" vertex="1" parent="1">
          <mxGeometry x="163" y="408" width="40" height="40" as="geometry" />
        </mxCell>
        <mxCell id="iZROIlO5ZiA8TIDN6EyB-2" value="" style="endArrow=none;html=1;rounded=0;" edge="1" parent="1">
          <mxGeometry width="50" height="50" relative="1" as="geometry">
            <mxPoint x="183" y="498" as="sourcePoint" />
            <mxPoint x="183" y="448" as="targetPoint" />
          </mxGeometry>
        </mxCell>
        <mxCell id="iZROIlO5ZiA8TIDN6EyB-4" value="" style="endArrow=none;html=1;rounded=0;" edge="1" parent="1">
          <mxGeometry width="50" height="50" relative="1" as="geometry">
            <mxPoint x="203" y="478" as="sourcePoint" />
            <mxPoint x="153" y="478" as="targetPoint" />
          </mxGeometry>
        </mxCell>
        <mxCell id="iZROIlO5ZiA8TIDN6EyB-5" value="" style="endArrow=none;html=1;rounded=0;" edge="1" parent="1">
          <mxGeometry width="50" height="50" relative="1" as="geometry">
            <mxPoint x="203" y="523" as="sourcePoint" />
            <mxPoint x="163" y="523" as="targetPoint" />
            <Array as="points">
              <mxPoint x="183" y="493" />
            </Array>
          </mxGeometry>
        </mxCell>
        <mxCell id="iZROIlO5ZiA8TIDN6EyB-7" value="" style="ellipse;whiteSpace=wrap;html=1;aspect=fixed;" vertex="1" parent="1">
          <mxGeometry x="168" y="598" width="40" height="40" as="geometry" />
        </mxCell>
        <mxCell id="iZROIlO5ZiA8TIDN6EyB-8" value="" style="endArrow=none;html=1;rounded=0;" edge="1" parent="1">
          <mxGeometry width="50" height="50" relative="1" as="geometry">
            <mxPoint x="188" y="688" as="sourcePoint" />
            <mxPoint x="188" y="638" as="targetPoint" />
          </mxGeometry>
        </mxCell>
        <mxCell id="iZROIlO5ZiA8TIDN6EyB-9" value="" style="endArrow=none;html=1;rounded=0;" edge="1" parent="1">
          <mxGeometry width="50" height="50" relative="1" as="geometry">
            <mxPoint x="208" y="668" as="sourcePoint" />
            <mxPoint x="158" y="668" as="targetPoint" />
          </mxGeometry>
        </mxCell>
        <mxCell id="iZROIlO5ZiA8TIDN6EyB-10" value="" style="endArrow=none;html=1;rounded=0;" edge="1" parent="1">
          <mxGeometry width="50" height="50" relative="1" as="geometry">
            <mxPoint x="208" y="713" as="sourcePoint" />
            <mxPoint x="168" y="713" as="targetPoint" />
            <Array as="points">
              <mxPoint x="188" y="683" />
            </Array>
          </mxGeometry>
        </mxCell>
        <mxCell id="iZROIlO5ZiA8TIDN6EyB-16" style="rounded=0;orthogonalLoop=1;jettySize=auto;html=1;exitX=1;exitY=0.5;exitDx=0;exitDy=0;entryX=0;entryY=0.5;entryDx=0;entryDy=0;endArrow=none;endFill=0;" edge="1" parent="1" source="iZROIlO5ZiA8TIDN6EyB-11" target="tPHH5LvpKrj1Zh-4ouin-13">
          <mxGeometry relative="1" as="geometry" />
        </mxCell>
        <mxCell id="djFXQgbhYTGaP2w8ebFR-2" style="rounded=0;orthogonalLoop=1;jettySize=auto;html=1;exitX=1;exitY=0.5;exitDx=0;exitDy=0;entryX=0;entryY=0.5;entryDx=0;entryDy=0;endArrow=none;endFill=0;" edge="1" parent="1" source="iZROIlO5ZiA8TIDN6EyB-11" target="tPHH5LvpKrj1Zh-4ouin-12">
          <mxGeometry relative="1" as="geometry" />
        </mxCell>
        <mxCell id="djFXQgbhYTGaP2w8ebFR-3" style="rounded=0;orthogonalLoop=1;jettySize=auto;html=1;exitX=1;exitY=0.5;exitDx=0;exitDy=0;entryX=0;entryY=0.5;entryDx=0;entryDy=0;endArrow=none;endFill=0;" edge="1" parent="1" source="iZROIlO5ZiA8TIDN6EyB-11" target="tPHH5LvpKrj1Zh-4ouin-14">
          <mxGeometry relative="1" as="geometry" />
        </mxCell>
        <mxCell id="iZROIlO5ZiA8TIDN6EyB-11" value="Primary Actor: User" style="rounded=0;whiteSpace=wrap;html=1;" vertex="1" parent="1">
          <mxGeometry x="128" y="358" width="120" height="30" as="geometry" />
        </mxCell>
        <mxCell id="djFXQgbhYTGaP2w8ebFR-16" style="rounded=0;orthogonalLoop=1;jettySize=auto;html=1;exitX=1;exitY=0.5;exitDx=0;exitDy=0;entryX=0;entryY=0.5;entryDx=0;entryDy=0;endArrow=none;endFill=0;" edge="1" parent="1" source="iZROIlO5ZiA8TIDN6EyB-12" target="tPHH5LvpKrj1Zh-4ouin-14">
          <mxGeometry relative="1" as="geometry" />
        </mxCell>
        <mxCell id="iZROIlO5ZiA8TIDN6EyB-12" value="Other User" style="rounded=0;whiteSpace=wrap;html=1;" vertex="1" parent="1">
          <mxGeometry x="123" y="738" width="120" height="30" as="geometry" />
        </mxCell>
        <mxCell id="djFXQgbhYTGaP2w8ebFR-6" style="edgeStyle=orthogonalEdgeStyle;rounded=0;orthogonalLoop=1;jettySize=auto;html=1;exitX=0.5;exitY=0;exitDx=0;exitDy=0;entryX=0.5;entryY=1;entryDx=0;entryDy=0;" edge="1" parent="1" source="djFXQgbhYTGaP2w8ebFR-1" target="tPHH5LvpKrj1Zh-4ouin-13">
          <mxGeometry relative="1" as="geometry" />
        </mxCell>
        <mxCell id="djFXQgbhYTGaP2w8ebFR-7" style="edgeStyle=orthogonalEdgeStyle;rounded=0;orthogonalLoop=1;jettySize=auto;html=1;exitX=0;exitY=0.5;exitDx=0;exitDy=0;entryX=1;entryY=0.5;entryDx=0;entryDy=0;" edge="1" parent="1" source="djFXQgbhYTGaP2w8ebFR-1" target="tPHH5LvpKrj1Zh-4ouin-7">
          <mxGeometry relative="1" as="geometry" />
        </mxCell>
        <mxCell id="djFXQgbhYTGaP2w8ebFR-8" style="rounded=0;orthogonalLoop=1;jettySize=auto;html=1;exitX=0;exitY=0;exitDx=0;exitDy=0;" edge="1" parent="1" source="djFXQgbhYTGaP2w8ebFR-1" target="tPHH5LvpKrj1Zh-4ouin-12">
          <mxGeometry relative="1" as="geometry" />
        </mxCell>
        <mxCell id="djFXQgbhYTGaP2w8ebFR-1" value="Gather Coupons" style="ellipse;whiteSpace=wrap;html=1;" vertex="1" parent="1">
          <mxGeometry x="590" y="680" width="110" height="30" as="geometry" />
        </mxCell>
        <mxCell id="djFXQgbhYTGaP2w8ebFR-9" style="rounded=0;orthogonalLoop=1;jettySize=auto;html=1;exitX=0;exitY=0;exitDx=0;exitDy=0;entryX=0.636;entryY=0.933;entryDx=0;entryDy=0;entryPerimeter=0;" edge="1" parent="1" source="djFXQgbhYTGaP2w8ebFR-1" target="tPHH5LvpKrj1Zh-4ouin-14">
          <mxGeometry relative="1" as="geometry" />
        </mxCell>
        <mxCell id="djFXQgbhYTGaP2w8ebFR-10" value="Include&amp;lt;&amp;lt; &amp;gt;&amp;gt;" style="rounded=0;whiteSpace=wrap;html=1;strokeColor=none;" vertex="1" parent="1">
          <mxGeometry x="605" y="330" width="80" height="20" as="geometry" />
        </mxCell>
        <mxCell id="djFXQgbhYTGaP2w8ebFR-11" value="Include&amp;lt;&amp;lt; &amp;gt;&amp;gt;" style="rounded=0;whiteSpace=wrap;html=1;strokeColor=none;" vertex="1" parent="1">
          <mxGeometry x="505" y="430" width="80" height="20" as="geometry" />
        </mxCell>
        <mxCell id="djFXQgbhYTGaP2w8ebFR-12" value="Include&amp;lt;&amp;lt; &amp;gt;&amp;gt;" style="rounded=0;whiteSpace=wrap;html=1;strokeColor=none;" vertex="1" parent="1">
          <mxGeometry x="425" y="540.5" width="80" height="20" as="geometry" />
        </mxCell>
        <mxCell id="djFXQgbhYTGaP2w8ebFR-13" value="Include&amp;lt;&amp;lt; &amp;gt;&amp;gt;" style="rounded=0;whiteSpace=wrap;html=1;strokeColor=none;" vertex="1" parent="1">
          <mxGeometry x="330" y="718" width="80" height="20" as="geometry" />
        </mxCell>
        <mxCell id="djFXQgbhYTGaP2w8ebFR-17" value="" style="whiteSpace=wrap;html=1;aspect=fixed;fillColor=none;" vertex="1" parent="1">
          <mxGeometry x="72" y="210" width="730" height="730" as="geometry" />
        </mxCell>
      </root>
    </mxGraphModel>
  </diagram>
</mxfile>
